<svg fill="none" height="24" viewBox="0 0 24 24" width="24" xmlns="http://www.w3.org/2000/svg"><g stroke="#212429" stroke-linecap="round" stroke-linejoin="round" stroke-width="2"><path d="m11 4h-7c-.53043 0-1.03914.21071-1.41421.58579-.37508.37507-.58579.88378-.58579 1.41421v14c0 .5304.21071 1.0391.58579 1.4142.37507.3751.88378.5858 1.41421.5858h14c.5304 0 1.0391-.2107 1.4142-.5858s.5858-.8838.5858-1.4142v-7"/><path d="m18.5 2.49998c.3978-.39782.9374-.62132 1.5-.62132s1.1022.2235 1.5.62132c.3978.39783.6213.93739.6213 1.5s-.2235 1.10218-.6213 1.5l-9.5 9.50002-4 1 1-4z"/></g></svg>