<svg fill="none" height="24" viewBox="0 0 24 24" width="24" xmlns="http://www.w3.org/2000/svg"><g stroke="#212429" stroke-linecap="round" stroke-linejoin="round" stroke-width="2"><path d="m10.29 3.85996-8.46998 14.14004c-.17463.3024-.26703.6453-.26801.9945s.0895.6926.26244.996c.17293.3034.4223.5562.72328.7333s.64309.2723.99229.2762h16.93998c.3492-.0039.6913-.0991.9923-.2762s.5504-.4299.7233-.7333.2634-.6468.2624-.996c-.0009-.3492-.0933-.6921-.268-.9945l-8.47-14.14004c-.1782-.29389-.4293-.53688-.7288-.70552-.2995-.16863-.6374-.25722-.9812-.25722-.3437 0-.6816.08859-.9812.25722-.2995.16864-.5505.41163-.7288.70552z"/><path d="m12 9v4"/><path d="m12 16v.5"/></g></svg>