<svg fill="none" height="24" viewBox="0 0 24 24" width="24" xmlns="http://www.w3.org/2000/svg"><g stroke="#212429" stroke-linecap="round" stroke-linejoin="round" stroke-width="2"><path d="m12 22c5.5228 0 10-4.4772 10-10 0-5.52285-4.4772-10-10-10-5.52285 0-10 4.47715-10 10 0 5.5228 4.47715 10 10 10z"/><path d="m9.09009 8.99996c.2351-.66833.69915-1.23189 1.30991-1.59087.6108-.35897 1.329-.49019 2.0273-.37042.6982.11977 1.3316.48281 1.7879 1.02482.4562.542.7059 1.22799.7049 1.93647 0 2.00004-3 3.00004-3 3.00004"/><path d="m12 16v.5"/></g></svg>