<svg fill="none" height="24" viewBox="0 0 24 24" width="24" xmlns="http://www.w3.org/2000/svg"><g stroke="#212429" stroke-linecap="round" stroke-linejoin="round" stroke-width="2"><path d="m22 12h-6l-2 3h-4l-2-3h-6"/><path d="m5.45 5.11-3.45 6.89v6c0 .5304.21071 1.0391.58579 1.4142.37507.3751.88378.5858 1.41421.5858h16c.5304 0 1.0391-.2107 1.4142-.5858s.5858-.8838.5858-1.4142v-6l-3.45-6.89c-.1656-.33321-.4208-.61363-.737-.80972-.3163-.19609-.6809-.30008-1.053-.30028h-9.52c-.37208.0002-.73674.10419-1.05296.30028-.31621.19609-.57146.47651-.73704.80972z"/></g></svg>