<svg fill="none" height="24" viewBox="0 0 24 24" width="24" xmlns="http://www.w3.org/2000/svg"><path clip-rule="evenodd" d="m12.0811 2.50904c.1935.34338.1673.76841-.067 1.08538-.8543 1.15566-1.2653 2.57953-1.1584 4.01264.1068 1.43312.7245 2.78024 1.7407 3.79644s2.3633 1.6339 3.7965 1.7408c1.4331.1068 2.8569-.3042 4.0126-1.1584l.5944.8041.9958.092c-.1748 1.8914-.8846 3.6938-2.0464 5.1965-1.1618 1.5026-2.7275 2.6433-4.514 3.2886-1.7864.6453-3.7197.7684-5.57353.355-1.85387-.4133-3.55167-1.3461-4.89475-2.6892s-2.27587-3.0409-2.68924-4.8948c-.41337-1.8538-.29021-3.7871.35506-5.57351.64527-1.78643 1.78596-3.35215 3.28861-4.51394s3.30509-1.87161 5.19645-2.04639c.3925-.03627.7697.1614.9632.50478zm7.4797 12.17456c-1.0531.381-2.1827.5397-3.3167.4551-1.9108-.1425-3.707-.9661-5.0619-2.321-1.35491-1.3549-2.1785-3.15109-2.321-5.0619-.08456-1.13397.07408-2.2636.45509-3.31672-.77761.28135-1.51079.68296-2.17151 1.19381-1.20212.92943-2.11468 2.182-2.63089 3.61115-.51622 1.42916-.61475 2.97576-.28405 4.45886s1.07693 2.8413 2.15139 3.9158c1.07446 1.0744 2.43271 1.8207 3.91577 2.1514 1.4831.3307 3.0297.2321 4.4589-.2841 1.4291-.5162 2.6817-1.4287 3.6111-2.6309.5109-.6607.9125-1.3939 1.1938-2.1715z" fill="#212429" fill-rule="evenodd"/></svg>