<svg fill="none" height="24" viewBox="0 0 24 24" width="24" xmlns="http://www.w3.org/2000/svg"><path d="m20.9999 12.79c-.1573 1.7022-.7961 3.3244-1.8418 4.6768-1.0456 1.3524-2.4547 2.379-4.0625 2.9597-1.6078.5808-3.3477.6916-5.0162.3196-1.66848-.372-3.1965-1.2116-4.40527-2.4203-1.20877-1.2088-2.04829-2.7368-2.42032-4.4053s-.26119-3.4084.31955-5.0162c.58075-1.60779 1.60737-3.01693 2.95975-4.06255 1.35239-1.04561 2.97459-1.68444 4.67679-1.84175-.9966 1.34827-1.47615 3.00945-1.35147 4.68141.12469 1.67197.84537 3.24369 2.03087 4.42919s2.7572 1.9062 4.4292 2.0309 3.3331-.3549 4.6814-1.3515z" stroke="#495057" stroke-linecap="round" stroke-linejoin="round" stroke-width="2"/></svg>