<svg fill="none" height="24" viewBox="0 0 24 24" width="24" xmlns="http://www.w3.org/2000/svg"><g stroke="#212429" stroke-linecap="round" stroke-linejoin="round" stroke-width="2"><path d="m18 8c1.6569 0 3-1.34315 3-3s-1.3431-3-3-3-3 1.34315-3 3 1.3431 3 3 3z"/><path d="m6 15c1.65685 0 3-1.3431 3-3s-1.34315-3-3-3-3 1.3431-3 3 1.34315 3 3 3z"/><path d="m18 22c1.6569 0 3-1.3431 3-3s-1.3431-3-3-3-3 1.3431-3 3 1.3431 3 3 3z"/><path d="m8.58984 13.51 6.82996 3.98"/><path d="m15.4098 6.51001-6.81996 3.97999"/></g></svg>