<svg fill="none" height="24" viewBox="0 0 24 24" width="24" xmlns="http://www.w3.org/2000/svg"><g clip-rule="evenodd" fill="#212429" fill-rule="evenodd"><path d="m12 8c-2.20914 0-4 1.79086-4 4 0 2.2091 1.79086 4 4 4 2.2091 0 4-1.7909 4-4 0-2.20914-1.7909-4-4-4zm-6 4c0-3.31371 2.68629-6 6-6 3.3137 0 6 2.68629 6 6 0 3.3137-2.6863 6-6 6-3.31371 0-6-2.6863-6-6z"/><path d="m12 0c.5523 0 1 .447715 1 1v2c0 .55228-.4477 1-1 1s-1-.44772-1-1v-2c0-.552285.4477-1 1-1z"/><path d="m12 20c.5523 0 1 .4477 1 1v2c0 .5523-.4477 1-1 1s-1-.4477-1-1v-2c0-.5523.4477-1 1-1z"/><path d="m3.51286 3.51286c.39053-.39052 1.02369-.39052 1.41422 0l1.42 1.42c.39052.39053.39052 1.02369 0 1.41422-.39053.39052-1.02369.39052-1.41422 0l-1.42-1.42c-.39052-.39053-.39052-1.02369 0-1.41422z"/><path d="m17.653 17.6529c.3905-.3905 1.0237-.3905 1.4142 0l1.42 1.42c.3905.3905.3905 1.0237 0 1.4142s-1.0237.3905-1.4142 0l-1.42-1.42c-.3905-.3905-.3905-1.0237 0-1.4142z"/><path d="m0 12c0-.5523.447715-1 1-1h2c.55228 0 1 .4477 1 1s-.44772 1-1 1h-2c-.552285 0-1-.4477-1-1z"/><path d="m20 12c0-.5523.4477-1 1-1h2c.5523 0 1 .4477 1 1s-.4477 1-1 1h-2c-.5523 0-1-.4477-1-1z"/><path d="m6.34708 17.6529c.39052.3905.39052 1.0237 0 1.4142l-1.42 1.42c-.39053.3905-1.02369.3905-1.41422 0-.39052-.3905-.39052-1.0237 0-1.4142l1.42-1.42c.39053-.3905 1.02369-.3905 1.41422 0z"/><path d="m20.4872 3.51286c.3905.39053.3905 1.02369 0 1.41422l-1.42 1.42c-.3905.39052-1.0237.39052-1.4142 0-.3905-.39053-.3905-1.02369 0-1.41422l1.42-1.42c.3905-.39052 1.0237-.39052 1.4142 0z"/></g></svg>