<svg fill="none" height="24" viewBox="0 0 24 24" width="24" xmlns="http://www.w3.org/2000/svg" xmlns:xlink="http://www.w3.org/1999/xlink"><g stroke="#212429" stroke-linecap="round" stroke-linejoin="round" stroke-width="2"><path d="m16 16-4-4-4 4"/><path d="m12 12v9"/><path d="m20.39 18.39c.9753-.5317 1.7458-1.3731 2.1898-2.3914.4441-1.0182.5364-2.1554.2624-3.2319-.274-1.0766-.8988-2.0312-1.7756-2.7133-.8768-.68203-1.9558-1.05268-3.0666-1.05342h-1.26c-.3027-1.17075-.8669-2.25766-1.6501-3.179s-1.7651-1.65315-2.8718-2.14039c-1.1068-.48724-2.30959-.71725-3.51802-.67272-1.20844.04452-2.39105.36241-3.45894.92978-1.06789.56736-1.99327 1.36944-2.70656 2.34592-.71329.97647-1.19593 2.10195-1.41164 3.29181-.21571 1.18982-.158875 2.41312.16623 3.57782.32511 1.1648.91003 2.2406 1.71079 3.1468"/><path d="m16 16-4-4-4 4"/></g></svg>